<svg width="238" height="58" viewBox="0 0 238 58" fill="none" xmlns="http://www.w3.org/2000/svg">
<path fill-rule="evenodd" clip-rule="evenodd" d="M28.5 57.002C44.2401 57.002 57 44.2421 57 28.502C57 12.7618 44.2401 0.00195312 28.5 0.00195312C12.7599 0.00195312 0 12.7618 0 28.502C0 44.2421 12.7599 57.002 28.5 57.002ZM27.7971 41.039C28.9597 42.1059 30.5418 42.7044 32.1911 42.7006L32.1912 42.7006C33.8401 42.7015 35.4217 42.1045 36.5881 41.0414C37.7541 39.9783 38.4098 38.536 38.4102 37.0317C38.4108 35.5274 37.7561 34.0848 36.5905 33.0211L23.1539 20.7627C22.696 20.389 22.427 19.8601 22.41 19.2999C22.393 18.7399 22.6294 18.1981 23.0636 17.8019C23.4978 17.4054 24.0918 17.19 24.7059 17.2055C25.3196 17.2211 25.8997 17.4665 26.3089 17.8842L33.7737 24.6944C35.3615 26.0502 37.6105 26.5506 39.7041 26.0135C41.7977 25.4764 43.4313 23.98 44.0117 22.0678C44.5921 20.1559 44.035 18.106 42.5423 16.6628V16.6631L39.8003 14.1615L36.9837 16.7312L39.7257 19.2372C40.1836 19.6105 40.4526 20.1397 40.4696 20.6997C40.4866 21.2599 40.2502 21.8017 39.8159 22.1979C39.3817 22.5941 38.7877 22.8098 38.174 22.7942C37.5599 22.7784 36.9802 22.533 36.5705 22.1156L29.1058 15.3054C27.5259 13.9204 25.2633 13.3966 23.1507 13.9268C21.038 14.4569 19.3874 15.9629 18.8063 17.8902C18.2252 19.8177 18.7993 21.8819 20.3173 23.3232L33.7539 35.5815C34.2118 35.9552 34.4808 36.4841 34.4978 37.0444C34.5148 37.6043 34.2784 38.1462 33.8442 38.5424C33.41 38.9389 32.816 39.1542 32.2019 39.1387C31.5882 39.1232 31.0081 38.8777 30.5989 38.46L23.1341 31.6498C21.547 30.2934 19.2985 29.7917 17.2047 30.3279C15.1108 30.8641 13.4761 32.3595 12.8947 34.2711C12.3129 36.183 12.869 38.2329 14.3602 39.6768H14.3606L17.1026 42.1783L19.9192 39.6087L17.1772 37.1071C16.7193 36.7338 16.4503 36.2046 16.4333 35.6447C16.4163 35.0844 16.6523 34.5426 17.087 34.1464C17.5212 33.7502 18.1152 33.5345 18.7289 33.5501C19.343 33.5659 19.9227 33.8113 20.3324 34.2287L27.7971 41.039Z" fill="black"/>
<path d="M77.0591 42.8591C82.4497 42.8591 86.486 40.177 86.892 36.0956L86.8939 36.0762C87.1993 33.0054 85.5726 31.2951 81.2884 30.3816L77.8091 29.6236C75.7442 29.1766 75.0911 28.477 75.1975 27.408L75.1994 27.3886C75.3328 26.0475 76.6502 25.1729 78.6229 25.1729C80.7323 25.1729 81.8506 26.3002 81.8971 27.7967L81.9012 27.9522H87.1551L87.1744 27.7578C87.4011 24.104 84.5875 21.1693 79.0211 21.1693C73.6891 21.1693 69.9964 23.7347 69.6021 27.6995L69.6001 27.719C69.2908 30.8286 71.1406 32.8499 75.118 33.7051L78.5993 34.4436C80.6056 34.8906 81.2449 35.532 81.1347 36.6398L81.1328 36.6592C80.9994 38.0003 79.6077 38.836 77.4593 38.836C75.1741 38.836 74.0384 37.8837 73.8296 36.2511L73.808 36.0762H68.2416L68.2437 36.2511C68.3005 40.1965 71.2583 42.8591 77.0591 42.8591ZM98.0914 42.8591C103.677 42.8591 107.635 39.3996 108.36 34.8517L108.372 34.7351H103.06L103.023 34.9101C102.423 37.0091 100.858 38.4084 98.5731 38.4084C95.7606 38.4084 94.2328 36.0956 94.6388 32.0142L94.6407 31.9947C95.037 28.0105 97.0326 25.62 99.8255 25.62C102.189 25.62 103.425 27.1359 103.579 29.1183L103.601 29.2932H108.894L108.907 29.1572C109.141 24.6482 105.874 21.1693 100.19 21.1693C93.9205 21.1693 89.5049 25.309 88.8419 31.9753L88.8399 31.9947C88.1711 38.7194 91.7047 42.8591 98.0914 42.8591ZM109.85 42.4315H115.553L116.713 30.7703C117.014 27.7384 118.821 26.067 121.634 26.067C122.454 26.067 123.224 26.1836 123.673 26.3779L124.17 21.383C123.752 21.2664 123.175 21.1693 122.55 21.1693C120.109 21.1693 118.261 22.6658 117.381 25.2312H117.264L117.625 21.5968H111.922L109.85 42.4315ZM129.217 18.9148C130.936 18.9148 132.397 17.5737 132.558 15.9606C132.718 14.3474 131.524 13.0064 129.805 13.0064C128.086 13.0064 126.624 14.3474 126.464 15.9606C126.304 17.5737 127.498 18.9148 129.217 18.9148ZM124.027 42.4315H129.73L131.802 21.5968H126.099L124.027 42.4315ZM145.407 42.8591C150.68 42.8591 154.348 38.7777 155.021 32.0142L155.023 31.9947C155.697 25.2118 152.838 21.1693 147.584 21.1693C144.595 21.1693 142.12 22.6852 140.717 25.2118H140.6L141.676 14.3863H135.973L133.184 42.4315H138.887L139.241 38.8749H139.358C140.245 41.3432 142.399 42.8591 145.407 42.8591ZM143.98 38.1558C141.207 38.1558 139.548 35.7846 139.923 32.0142L139.925 31.9947C140.298 28.2437 142.448 25.8726 145.202 25.8726C148.034 25.8726 149.601 28.1854 149.222 31.9947L149.22 32.0142C148.843 35.8041 146.812 38.1558 143.98 38.1558ZM168.763 42.8591C174.037 42.8591 177.704 38.7777 178.377 32.0142L178.379 31.9947C179.054 25.2118 176.194 21.1693 170.94 21.1693C167.952 21.1693 165.477 22.6852 164.073 25.2118H163.956L165.033 14.3863H159.33L156.54 42.4315H162.243L162.597 38.8749H162.714C163.602 41.3432 165.756 42.8591 168.763 42.8591ZM167.337 38.1558C164.563 38.1558 162.905 35.7846 163.28 32.0142L163.281 31.9947C163.655 28.2437 165.804 25.8726 168.558 25.8726C171.39 25.8726 172.957 28.1854 172.578 31.9947L172.576 32.0142C172.199 35.8041 170.169 38.1558 167.337 38.1558ZM192.12 42.8591C197.393 42.8591 201.061 38.7777 201.734 32.0142L201.736 31.9947C202.41 25.2118 199.551 21.1693 194.297 21.1693C191.308 21.1693 188.833 22.6852 187.43 25.2118H187.313L188.389 14.3863H182.686L179.897 42.4315H185.6L185.954 38.8749H186.071C186.958 41.3432 189.112 42.8591 192.12 42.8591ZM190.693 38.1558C187.92 38.1558 186.261 35.7846 186.636 32.0142L186.638 31.9947C187.011 28.2437 189.161 25.8726 191.915 25.8726C194.747 25.8726 196.314 28.1854 195.935 31.9947L195.933 32.0142C195.556 35.8041 193.525 38.1558 190.693 38.1558ZM203.253 42.4315H208.956L211.746 14.3863H206.043L203.253 42.4315ZM221.782 42.8591C227.759 42.8591 230.999 39.3413 231.949 36.2705L232.029 36.0567H226.795L226.744 36.1734C226.218 37.3395 224.664 38.6222 222.321 38.6222C219.41 38.6222 217.787 36.6787 218.059 33.3552H232.473L232.647 31.606C233.274 25.309 229.838 21.1693 223.705 21.1693C217.572 21.1693 213.225 25.4062 212.566 32.0336L212.564 32.0531C211.901 38.7194 215.376 42.8591 221.782 42.8591ZM223.381 25.4062C225.744 25.4062 227.295 26.9027 227.36 29.7791H218.474C219.125 26.961 221.037 25.4062 223.381 25.4062Z" fill="black"/>
</svg>
